# xmcd
#
# Track frame offsets:
# 150
# 14859
# 29789
# 53068
# 73592
# 87743
#
# Disc length: 1489 seconds
#
#
# Revision: 0
# Processed by: cddbd v1.5.2PL0 Copyright (c) Steve Scherf et al.
# Submitted via: FreeRIP 2.951 
#
DISCID=5805cf06
DTITLE=Silverpennies - Andromeda
DYEAR=1900
DGENRE=Pop
TTITLE0=Left behind
TTITLE1=Feel me up
TTITLE2=Big black tree
TTITLE3=Rockets and DNA
TTITLE4=This is
TTITLE5=Emoticon
EXTD=
EXTT0=
EXTT1=
EXTT2=
EXTT3=
EXTT4=
EXTT5=
PLAYORDER=
